<?xml version="1.0" encoding="UTF-8" standalone="no"?>
<svg
   xmlns:dc="http://purl.org/dc/elements/1.1/"
   xmlns:cc="http://creativecommons.org/ns#"
   xmlns:rdf="http://www.w3.org/1999/02/22-rdf-syntax-ns#"
   xmlns:svg="http://www.w3.org/2000/svg"
   xmlns="http://www.w3.org/2000/svg"
   xmlns:sodipodi="http://sodipodi.sourceforge.net/DTD/sodipodi-0.dtd"
   xmlns:inkscape="http://www.inkscape.org/namespaces/inkscape"
   inkscape:version="1.0 (4035a4fb49, 2020-05-01)"
   sodipodi:docname="noun_Object_2818944.svg"
   id="svg10"
   version="1.1"
   y="0px"
   x="0px"
   viewBox="0 0 100.00421 100"
   data-name="Layer 1"
   fill="#009688"
   width="100.00421"
   height="100">
  <metadata
     id="metadata16">
    <rdf:RDF>
      <cc:Work
         rdf:about="">
        <dc:format>image/svg+xml</dc:format>
        <dc:type
           rdf:resource="http://purl.org/dc/dcmitype/StillImage" />
      </cc:Work>
    </rdf:RDF>
  </metadata>
  <defs
     id="defs14" />
  <sodipodi:namedview
     inkscape:current-layer="svg10"
     inkscape:window-maximized="1"
     inkscape:window-y="32"
     inkscape:window-x="-8"
     inkscape:cy="44.99621"
     inkscape:cx="45"
     inkscape:zoom="10.26"
     showgrid="false"
     id="namedview12"
     inkscape:window-height="1973"
     inkscape:window-width="3620"
     inkscape:pageshadow="2"
     inkscape:pageopacity="0"
     guidetolerance="10"
     gridtolerance="10"
     objecttolerance="10"
     borderopacity="1"
     bordercolor="#666666"
     pagecolor="#ffffff" />
  <title
     id="title2">Essential, interface_59</title>
  <path
     style="fill:#ffffff;stroke-width:1.11116"
     id="path4"
     d="m 25.212173,49.175637 h 49.579865 a 3.1334653,3.1334653 0 0 0 2.700114,-4.733532 L 52.71333,1.5625217 a 3.1334653,3.1334653 0 0 0 -5.42245,0 L 22.512059,44.442105 a 3.1334653,3.1334653 0 0 0 2.700114,4.689086 z M 50.002105,9.3739613 69.369587,42.93093 H 30.634623 Z" />
  <path
     style="fill:#ffffff;stroke-width:1.11116"
     id="path6"
     d="M 40.835053,56.042593 H 3.1223537 A 3.1223537,3.1223537 0 0 0 0,59.164947 V 96.87765 A 3.1223537,3.1223537 0 0 0 3.1223537,100 H 40.835053 a 3.1223537,3.1223537 0 0 0 3.122353,-3.12235 V 59.164947 A 3.1223537,3.1223537 0 0 0 40.835053,56.042593 Z M 37.712699,93.74418 H 6.255819 V 62.2873 h 31.45688 z" />
  <path
     style="fill:#ffffff;stroke-width:1.11116"
     id="path8"
     d="M 78.025507,56.042593 A 21.978703,21.978703 0 1 0 100.00421,78.021296 22.000926,22.000926 0 0 0 78.025507,56.042593 Z m 0,37.701587 A 15.733996,15.733996 0 1 1 93.759503,78.021296 15.745107,15.745107 0 0 1 78.025507,93.74418 Z" />
</svg>
