<?xml version="1.0" encoding="UTF-8" standalone="no"?>
<svg
   xmlns:dc="http://purl.org/dc/elements/1.1/"
   xmlns:cc="http://creativecommons.org/ns#"
   xmlns:rdf="http://www.w3.org/1999/02/22-rdf-syntax-ns#"
   xmlns:svg="http://www.w3.org/2000/svg"
   xmlns="http://www.w3.org/2000/svg"
   xmlns:sodipodi="http://sodipodi.sourceforge.net/DTD/sodipodi-0.dtd"
   xmlns:inkscape="http://www.inkscape.org/namespaces/inkscape"
   inkscape:version="1.0 (4035a4fb49, 2020-05-01)"
   sodipodi:docname="noun_beach scene_3391454.svg"
   id="svg10"
   version="1.1"
   y="0px"
   x="0px"
   viewBox="0 0 19.692277 16"
   fill="#009688"
   width="123.07673"
   height="100">
  <metadata
     id="metadata16">
    <rdf:RDF>
      <cc:Work
         rdf:about="">
        <dc:format>image/svg+xml</dc:format>
        <dc:type
           rdf:resource="http://purl.org/dc/dcmitype/StillImage" />
      </cc:Work>
    </rdf:RDF>
  </metadata>
  <defs
     id="defs14" />
  <sodipodi:namedview
     inkscape:current-layer="svg10"
     inkscape:window-maximized="1"
     inkscape:window-y="32"
     inkscape:window-x="-8"
     inkscape:cy="43.750126"
     inkscape:cx="50"
     inkscape:zoom="10.26"
     showgrid="false"
     id="namedview12"
     inkscape:window-height="1973"
     inkscape:window-width="3620"
     inkscape:pageshadow="2"
     inkscape:pageopacity="0"
     guidetolerance="10"
     gridtolerance="10"
     objecttolerance="10"
     borderopacity="1"
     bordercolor="#666666"
     pagecolor="#ffffff" />
  <title
     id="title2">beach, sea, nature, scene, mode</title>
  <g
     style="fill:#ffffff"
     transform="matrix(1.2307673,0,0,1.2307673,0,-1.2307424)"
     id="g8"
     data-name="18">
    <path
       style="fill:#ffffff"
       id="path4"
       d="M 13,12 H 10.13 A 7.35,7.35 0 0 0 9.2,11 h 6.3 a 0.5,0.5 0 0 0 0,-1 H 7.82 A 7.71,7.71 0 0 0 4,9 V 9 8.33 A 6.31,6.31 0 0 1 5.7,4 2.5,2.5 0 0 1 8,6.5 0.5,0.5 0 0 0 9,6.5 3.49,3.49 0 0 0 6.07,3.06 1.51,1.51 0 0 1 7.5,2 h 1 a 0.5,0.5 0 0 0 0,-1 h -1 a 2.48,2.48 0 0 0 -2,1 2.48,2.48 0 0 0 -2,-1 h -1 a 0.5,0.5 0 0 0 0,1 h 1 A 1.51,1.51 0 0 1 4.91,3 H 3.5 A 2.5,2.5 0 0 0 1,5.5 0.5,0.5 0 0 0 2,5.5 1.5,1.5 0 0 1 3.5,4 H 4.42 A 7.27,7.27 0 0 0 3,8.33 V 9 H 0.5 a 0.5,0.5 0 0 0 0,1 H 4 a 6.68,6.68 0 0 1 5.6,3 H 0.5 a 0.5,0.5 0 0 0 0,1 h 10 a 0.52,0.52 0 0 0 0.43,-0.24 0.51,0.51 0 0 0 0,-0.48 A 2.61,2.61 0 0 0 10.76,13 H 13 a 0.5,0.5 0 0 0 0,-1 z" />
    <path
       style="fill:#ffffff"
       id="path6"
       d="m 15.5,13 h -1 a 0.5,0.5 0 0 0 0,1 h 1 a 0.5,0.5 0 0 0 0,-1 z" />
  </g>
</svg>
