<?xml version="1.0" encoding="UTF-8" standalone="no"?>
<svg
   xmlns:dc="http://purl.org/dc/elements/1.1/"
   xmlns:cc="http://creativecommons.org/ns#"
   xmlns:rdf="http://www.w3.org/1999/02/22-rdf-syntax-ns#"
   xmlns:svg="http://www.w3.org/2000/svg"
   xmlns="http://www.w3.org/2000/svg"
   xmlns:sodipodi="http://sodipodi.sourceforge.net/DTD/sodipodi-0.dtd"
   xmlns:inkscape="http://www.inkscape.org/namespaces/inkscape"
   inkscape:version="1.0 (4035a4fb49, 2020-05-01)"
   sodipodi:docname="noun_concept_1243553.svg"
   id="svg6"
   version="1.1"
   y="0px"
   x="0px"
   viewBox="0 0 74.12149 100"
   data-name="Layer 1"
   fill="#009688"
   width="74.12149"
   height="100">
  <metadata
     id="metadata12">
    <rdf:RDF>
      <cc:Work
         rdf:about="">
        <dc:format>image/svg+xml</dc:format>
        <dc:type
           rdf:resource="http://purl.org/dc/dcmitype/StillImage" />
      </cc:Work>
    </rdf:RDF>
  </metadata>
  <defs
     id="defs10" />
  <sodipodi:namedview
     inkscape:current-layer="svg6"
     inkscape:window-maximized="1"
     inkscape:window-y="32"
     inkscape:window-x="-8"
     inkscape:cy="42.744448"
     inkscape:cx="31.692617"
     inkscape:zoom="10.26"
     showgrid="false"
     id="namedview8"
     inkscape:window-height="1973"
     inkscape:window-width="3620"
     inkscape:pageshadow="2"
     inkscape:pageopacity="0"
     guidetolerance="10"
     gridtolerance="10"
     objecttolerance="10"
     borderopacity="1"
     bordercolor="#666666"
     pagecolor="#ffffff" />
  <title
     id="title2">117all</title>
  <path
     style="stroke-width:1.16953;fill:#ffffff"
     id="path4"
     d="M 61.765928,9.3614413 A 37.10918,37.10918 0 0 0 0.23696701,33.067809 36.255423,36.255423 0 0 0 13.324005,65.288355 a 12.782961,12.782961 0 0 1 4.678119,9.730488 v 17.542946 a 7.4499047,7.4499047 0 0 0 7.438209,7.438209 h 23.15669 a 7.4499047,7.4499047 0 0 0 7.43821,-7.438209 V 75.545131 A 12.934999,12.934999 0 0 1 60.456055,65.849729 37.191047,37.191047 0 0 0 61.765928,9.3614413 Z M 49.029749,92.526703 a 0.42103072,0.42103072 0 0 1 -0.421031,0.421035 H 25.475419 a 0.42103072,0.42103072 0 0 1 -0.42103,-0.421035 V 79.311017 h 23.97536 z m 6.900226,-32.01003 A 20.080826,20.080826 0 0 0 49.298741,72.328924 H 40.574049 V 48.236611 h 6.198508 V 41.219432 H 27.334972 v 7.017179 H 33.55687 V 72.293838 H 24.843873 A 20.338123,20.338123 0 0 0 17.826695,59.908518 28.969253,28.969253 0 0 1 7.230755,33.804613 30.02183,30.02183 0 0 1 67.11068,37.067601 30.407774,30.407774 0 0 1 55.929975,60.516673 Z" />
</svg>
