<?xml version="1.0" encoding="UTF-8" standalone="no"?>
<svg
   xmlns:dc="http://purl.org/dc/elements/1.1/"
   xmlns:cc="http://creativecommons.org/ns#"
   xmlns:rdf="http://www.w3.org/1999/02/22-rdf-syntax-ns#"
   xmlns:svg="http://www.w3.org/2000/svg"
   xmlns="http://www.w3.org/2000/svg"
   xmlns:sodipodi="http://sodipodi.sourceforge.net/DTD/sodipodi-0.dtd"
   xmlns:inkscape="http://www.inkscape.org/namespaces/inkscape"
   sodipodi:docname="icon.svg"
   inkscape:version="1.0 (4035a4fb49, 2020-05-01)"
   id="svg8"
   version="1.1"
   viewBox="0 0 1000 999.99993"
   height="264.58331mm"
   width="264.58334mm">
  <defs
     id="defs2" />
  <sodipodi:namedview
     units="mm"
     inkscape:document-rotation="0"
     inkscape:window-maximized="1"
     inkscape:window-y="32"
     inkscape:window-x="-8"
     inkscape:window-height="1973"
     inkscape:window-width="3620"
     inkscape:showpageshadow="false"
     inkscape:pagecheckerboard="true"
     showgrid="false"
     inkscape:current-layer="layer1"
     inkscape:document-units="px"
     inkscape:cy="544.28703"
     inkscape:cx="580.95457"
     inkscape:zoom="1.4"
     inkscape:pageshadow="2"
     inkscape:pageopacity="0.0"
     borderopacity="1"
     bordercolor="#ff6666"
     pagecolor="#ffffff"
     id="base" />
  <metadata
     id="metadata5">
    <rdf:RDF>
      <cc:Work
         rdf:about="">
        <dc:format>image/svg+xml</dc:format>
        <dc:type
           rdf:resource="http://purl.org/dc/dcmitype/StillImage" />
        <dc:title />
      </cc:Work>
    </rdf:RDF>
  </metadata>
  <g
     transform="translate(-1252.1844,-918.29955)"
     id="layer1"
     inkscape:groupmode="layer"
     inkscape:label="Layer 1">
    <path
       d="m 1292.8112,944.64365 c -0.1317,0.005 -0.2125,0.0212 -0.2391,0.0478 -0.4366,0.43666 4.2262,26.63273 9.4833,53.27607 19.694,99.81188 42.9255,173.31148 65.3852,206.87118 10.4981,15.6864 28.7489,30.5272 48.8921,39.7595 10.9296,5.0094 28.1254,9.715 41.8752,11.46 6.9794,0.8858 30.592,-0.2957 38.6846,-1.9358 47.5288,-9.6324 85.5259,-43.0758 100.7971,-88.7199 8.2712,-24.7217 8.846,-53.4898 1.5692,-78.6513 -8.004,-27.6761 -26.2161,-53.9512 -46.6829,-67.3507 -30.6794,-20.08558 -88.4334,-39.60894 -171.4114,-57.94711 -30.851,-6.81806 -84.2704,-16.95702 -88.3533,-16.80978 z m 928.7531,1.41885 c -0.3125,-0.31242 -205.0676,80.3824 -206.1173,81.2316 -0.2094,0.1694 27.6972,28.3873 62.0146,62.707 34.3175,34.3198 62.568,62.2288 62.7776,62.0192 0.7983,-0.7983 81.6714,-205.61146 81.3251,-205.9578 z m -246.5487,104.794 -287.7612,287.7612 -287.7611,287.7634 27.4818,27.4887 27.4796,27.491 287.7657,-287.7658 287.7657,-287.7657 -27.4864,-27.4864 z m 86.6178,86.6247 -287.7589,287.7588 -287.7588,287.7612 27.4772,27.4864 c 15.113,15.1182 27.6668,27.4887 27.8987,27.4887 0.2319,0 129.8231,-129.4013 287.9798,-287.5585 l 287.5584,-287.5584 -27.6982,-27.6891 z m -423.5306,48.3044 c -0.3539,0 -0.8912,1.0291 -1.1957,2.2889 -1.0247,4.2405 -11.8926,25.5465 -16.8872,33.1071 -15.7945,23.9087 -35.1654,42.0699 -60.6163,56.8289 -4.8383,2.8057 -15.5556,7.8691 -24.3959,11.5261 -1.8332,0.7584 -1.431,1.4363 10.3145,17.4406 12.5967,17.1642 18.7637,25.2002 37.2862,48.5892 l 10.7814,13.6145 61.5068,-61.5045 c 33.8291,-33.8268 61.5068,-61.7571 61.5068,-62.067 0,-1.706 -76.0679,-59.8238 -78.3006,-59.8238 z m 293.1951,256.5307 c -0.2359,0 -32.0914,31.6635 -70.7919,70.366 l -70.366,70.3683 5.4021,5.5 c 12.6926,12.9208 54.1098,51.5542 80.8103,75.3809 126.662,113.0295 250.8448,196.6894 317.7141,214.0337 11.3575,2.9459 22.2287,3.2891 27.5501,0.8722 5.8201,-2.6433 7.887,-9.6012 6.2266,-20.957 -7.6958,-52.6314 -76.0272,-163.4705 -170.6986,-276.8886 -22.4901,-26.9435 -50.9067,-59.3183 -74.3037,-84.6547 -16.0047,-17.3313 -51.0117,-54.0208 -51.543,-54.0208 z m -563.5954,215.7918 -35.3959,35.569 c -25.7348,25.8607 -36.4928,37.2456 -39.4179,41.7113 -12.5066,19.0932 -17.6682,37.5139 -16.8303,60.072 0.6753,18.1804 4.8407,32.3952 13.922,47.5051 15.6244,25.9965 43.518,44.4336 72.8621,48.161 26.5297,3.3699 52.6098,-3.5762 74.126,-19.7386 5.0983,-3.8297 72.0445,-69.906 72.0445,-71.1084 0,-0.3636 -31.7948,-32.5006 -70.6552,-71.4159 z"
       style="fill:#cc00ff;fill-opacity:1;stroke-width:1.63156;paint-order:markers stroke fill;stop-color:#000000"
       id="path834" />
  </g>
</svg>
