<?xml version="1.0" encoding="UTF-8" standalone="no"?>
<svg
   xmlns:dc="http://purl.org/dc/elements/1.1/"
   xmlns:cc="http://creativecommons.org/ns#"
   xmlns:rdf="http://www.w3.org/1999/02/22-rdf-syntax-ns#"
   xmlns:svg="http://www.w3.org/2000/svg"
   xmlns="http://www.w3.org/2000/svg"
   id="svg8"
   version="1.1"
   viewBox="0 0 1000 999.99993"
   height="264.58331mm"
   width="264.58334mm">
  <defs
     id="defs2" />
  <metadata
     id="metadata5">
    <rdf:RDF>
      <cc:Work
         rdf:about="">
        <dc:format>image/svg+xml</dc:format>
        <dc:type
           rdf:resource="http://purl.org/dc/dcmitype/StillImage" />
        <dc:title></dc:title>
      </cc:Work>
    </rdf:RDF>
  </metadata>
  <rect
     y="0"
     x="0"
     height="999.99994"
     width="1000.0001"
     id="rect843"
     style="fill:#cc00ff;stroke-width:32;stroke-linecap:round;stroke-linejoin:round;paint-order:markers stroke fill;stop-color:#000000;fill-opacity:1" />
  <g
     style="fill:#ffffff"
     transform="matrix(1.2831267,0,0,1.2831267,-1748.0598,-1451.0598)"
     id="layer1">
    <g
       style="fill:#ffffff"
       id="g902"
       transform="translate(-10.467881,7.2860248)">
      <path
         style="color:#000000;font-style:normal;font-variant:normal;font-weight:normal;font-stretch:normal;font-size:medium;line-height:normal;font-family:sans-serif;font-variant-ligatures:normal;font-variant-position:normal;font-variant-caps:normal;font-variant-numeric:normal;font-variant-alternates:normal;font-variant-east-asian:normal;font-feature-settings:normal;font-variation-settings:normal;text-indent:0;text-align:start;text-decoration:none;text-decoration-line:none;text-decoration-style:solid;text-decoration-color:#000000;letter-spacing:normal;word-spacing:normal;text-transform:none;writing-mode:lr-tb;direction:ltr;text-orientation:mixed;dominant-baseline:auto;baseline-shift:baseline;text-anchor:start;white-space:normal;shape-padding:0;shape-margin:0;inline-size:0;clip-rule:nonzero;display:inline;overflow:visible;visibility:visible;opacity:1;isolation:auto;mix-blend-mode:normal;color-interpolation:sRGB;color-interpolation-filters:linearRGB;solid-color:#000000;solid-opacity:1;vector-effect:none;fill:#ffffff;fill-opacity:1;fill-rule:nonzero;stroke:none;stroke-width:32;stroke-linecap:round;stroke-linejoin:round;stroke-miterlimit:4;stroke-dasharray:none;stroke-dashoffset:0;stroke-opacity:1;paint-order:markers stroke fill;color-rendering:auto;image-rendering:auto;shape-rendering:auto;text-rendering:auto;enable-background:accumulate;stop-color:#000000;stop-opacity:1"
         d="m 376.38672,-2544.8965 c -80.27283,-2.3862 -160.42621,27.5981 -220.09961,87.2715 -95.477458,95.4774 -114.950259,243.3848 -47.4375,360.3203 67.51276,116.9355 205.34103,174.0273 335.76562,139.0801 130.42459,-34.9472 221.24217,-153.3046 221.24219,-288.3301 a 16,16 0 0 0 -16,-16 16,16 0 0 0 -16,16 c -2e-5,120.6967 -80.93937,226.1813 -197.52344,257.4199 -116.58407,31.2387 -239.4231,-19.6435 -299.77148,-124.1699 -60.348376,-104.5264 -42.993928,-236.3479 42.35156,-321.6933 85.34548,-85.3455 217.16693,-102.7 321.69336,-42.3516 a 16,16 0 0 0 21.85742,-5.8574 16,16 0 0 0 -5.85742,-21.8555 c -43.85081,-25.3173 -92.057,-38.4023 -140.2207,-39.834 z"
         id="path951"
         transform="rotate(120)" />
      <path
         id="rect837"
         style="fill:#ffffff;fill-opacity:1;stroke:none;stroke-width:18.0066;stroke-linecap:round;stroke-linejoin:round;stroke-miterlimit:4;stroke-dasharray:none;paint-order:markers stroke fill;stop-color:#000000"
         d="m 1876.4922,1728.6211 c -37.738,0.045 -75.4761,0 -113.2141,0.018 -39.0183,0.01 -78.0379,-0.013 -117.0554,0.01 -2.4126,0.2814 -4.8326,1.8071 -5.5332,4.2343 -0.6747,2.1568 -0.2469,4.4328 -0.3672,6.6473 0.01,12.9857 -0.016,25.9734 0.012,38.9578 0.3131,2.2306 1.5471,4.6596 3.8099,5.3754 2.2515,0.903 4.7122,0.395 7.0645,0.5254 75.4186,0 150.8372,0 226.2558,0 2.3058,-0.2956 4.8053,-1.5556 5.5159,-3.9334 0.8443,-2.2176 0.3548,-4.6246 0.4841,-6.9319 -0.01,-12.9944 0.016,-25.9908 -0.012,-38.984 -0.321,-2.302 -1.6169,-4.7731 -4.0039,-5.4454 -0.9431,-0.3428 -1.9532,-0.508 -2.9565,-0.4729 z" />
      <path
         id="rect839"
         style="fill:#ffffff;fill-opacity:1;stroke:none;stroke-width:15.931;stroke-linecap:round;stroke-linejoin:round;stroke-miterlimit:4;stroke-dasharray:none;paint-order:markers stroke fill;stop-color:#000000"
         d="m 1850.5156,1818.6211 c -37.738,0.045 -75.476,0 -113.214,0.018 -21.7006,0.01 -43.4025,-0.013 -65.1023,0.01 -2.4127,0.2814 -4.8327,1.8071 -5.5333,4.2343 -0.6746,2.1568 -0.2468,4.4328 -0.3672,6.6473 0.01,12.9857 -0.016,25.9734 0.012,38.9578 0.3132,2.2306 1.547,4.6596 3.81,5.3754 2.2515,0.903 4.7122,0.395 7.0644,0.5254 58.101,0 116.2019,0 174.3028,0 2.3425,-0.2935 4.8663,-1.6019 5.5511,-4.027 0.6861,-1.7944 0.4045,-3.7661 0.4423,-5.5623 0.01,-13.4196 0.018,-26.8415 -0.01,-40.26 -0.321,-2.302 -1.6168,-4.7731 -4.0039,-5.4454 -0.9431,-0.3428 -1.9532,-0.508 -2.9565,-0.4729 z" />
      <path
         id="path919"
         style="color:#000000;font-style:normal;font-variant:normal;font-weight:normal;font-stretch:normal;font-size:medium;line-height:1.25;font-family:Raleway;-inkscape-font-specification:Raleway;font-variant-ligatures:normal;font-variant-position:normal;font-variant-caps:normal;font-variant-numeric:normal;font-variant-alternates:normal;font-variant-east-asian:normal;font-feature-settings:normal;font-variation-settings:normal;text-indent:0;text-align:start;text-decoration:none;text-decoration-line:none;text-decoration-style:solid;text-decoration-color:#000000;letter-spacing:normal;word-spacing:normal;text-transform:none;writing-mode:lr-tb;direction:ltr;text-orientation:mixed;dominant-baseline:auto;baseline-shift:baseline;text-anchor:start;white-space:normal;shape-padding:0;shape-margin:0;inline-size:0;clip-rule:nonzero;display:inline;overflow:visible;visibility:visible;isolation:auto;mix-blend-mode:normal;color-interpolation:sRGB;color-interpolation-filters:linearRGB;solid-color:#000000;solid-opacity:1;vector-effect:none;fill:#ffffff;fill-opacity:1;fill-rule:nonzero;stroke:none;stroke-width:16;stroke-linecap:round;stroke-linejoin:round;stroke-miterlimit:4;stroke-dasharray:none;stroke-dashoffset:0;stroke-opacity:1;color-rendering:auto;image-rendering:auto;shape-rendering:auto;text-rendering:auto;enable-background:accumulate;stop-color:#000000"
         d="m 389.625,446.82422 a 7.1444301,8.9598191 0 0 0 -7.14453,8.95898 v 279.26758 a 7.1444301,8.9598191 0 0 0 7.14453,8.95899 h 21.95508 a 7.1444301,8.9598191 0 0 0 7.14258,-8.95899 V 539.32812 l 67.89453,148.26368 a 7.1444301,8.9598191 0 0 0 6.19336,4.49804 h 12.86133 a 7.1444301,8.9598191 0 0 0 6.19335,-4.49804 l 67.89454,-148.26563 v 195.72461 a 7.1444301,8.9598191 0 0 0 7.14453,8.95899 h 21.95312 a 7.1444301,8.9598191 0 0 0 7.14453,-8.95899 V 455.7832 a 7.1444301,8.9598191 0 0 0 -7.14453,-8.95898 h -22.26758 a 7.1444301,8.9598191 0 0 0 -6.19531,4.49805 L 499.10742,628.90039 418.41211,451.3457 a 7.1444301,8.9598191 0 0 0 -6.20508,-4.52148 z"
         transform="translate(1262.6523,911.01353)" />
    </g>
  </g>
</svg>
