<?xml version="1.0" encoding="UTF-8" standalone="no"?>
<svg
   xmlns:dc="http://purl.org/dc/elements/1.1/"
   xmlns:cc="http://creativecommons.org/ns#"
   xmlns:rdf="http://www.w3.org/1999/02/22-rdf-syntax-ns#"
   xmlns:svg="http://www.w3.org/2000/svg"
   xmlns="http://www.w3.org/2000/svg"
   width="281.5704mm"
   height="120.01852mm"
   viewBox="0 0 1064.2031 453.61329"
   version="1.1"
   id="svg8">
  <defs
     id="defs2" />
  <metadata
     id="metadata5">
    <rdf:RDF>
      <cc:Work
         rdf:about="">
        <dc:format>image/svg+xml</dc:format>
        <dc:type
           rdf:resource="http://purl.org/dc/dcmitype/StillImage" />
        <dc:title></dc:title>
      </cc:Work>
    </rdf:RDF>
  </metadata>
  <path
     id="path1568"
     style="font-style:normal;font-variant:normal;font-weight:normal;font-stretch:normal;font-size:440.687px;line-height:1.25;font-family:Raleway;-inkscape-font-specification:Raleway;text-align:center;text-anchor:middle;fill:#ffffff;stroke-width:11.0172"
     d="M 0,0 V 312.88868 H 30.847656 V 55.9668 l 114.138674,198.75 h 18.06836 l 114.13672,-198.75 v 256.92188 h 30.84961 V 0 H 276.75195 L 153.79883,214.17383 31.728516,0 Z m 474.68164,79.32422 c -16.45231,0 -31.58243,3.2319 -45.39062,9.69532 -13.8082,6.4634 -25.85403,15.1297 -36.13672,26 -9.98891,10.87028 -17.92105,23.50265 -23.79688,37.89843 -5.58203,14.39578 -8.37305,29.67351 -8.37304,45.83203 0,15.86473 2.79101,30.99485 8.37304,45.39063 5.58204,14.39577 13.36852,27.02816 23.35742,37.89844 10.2827,10.87028 22.32658,19.53854 36.13477,26.00195 13.80819,6.16962 29.08593,9.25391 45.83203,9.25391 16.74611,0 32.02384,-3.08429 45.83203,-9.25391 14.10199,-6.46341 26.14781,-15.13167 36.13672,-26.00195 10.28267,-10.87028 18.21481,-23.50267 23.79688,-37.89844 5.58206,-14.39578 8.37304,-29.5259 8.37304,-45.39063 0,-16.15852 -2.93858,-31.43625 -8.81445,-45.83203 -5.582,-14.39578 -13.51415,-27.02816 -23.79688,-37.89843 -9.9889,-10.87029 -22.03473,-19.53662 -36.13671,-26 -13.8082,-6.46342 -28.93831,-9.69532 -45.39063,-9.69532 z m 405.31445,3.96485 v 22.47656 H 1031.5938 L 876.4707,292.61719 v 20.27149 h 187.293 V 290.41211 H 909.52344 L 1064.2031,103.5625 V 83.28907 Z m -405.31445,22.47656 c 11.45787,0 22.18102,2.49579 32.16992,7.49023 10.2827,4.70067 19.24422,11.31209 26.88282,19.83203 7.63855,8.22616 13.66149,18.06754 18.06835,29.52539 4.40684,11.16409 6.60938,23.06229 6.60938,35.69532 0,12.92682 -2.20254,24.97265 -6.60938,36.13672 -4.40686,11.16407 -10.4298,21.00739 -18.06835,29.52734 -7.6386,8.22616 -16.60012,14.83562 -26.88282,19.83008 -9.9889,4.70066 -20.71205,7.05078 -32.16992,7.05078 -11.45786,0 -22.32863,-2.35012 -32.61133,-7.05078 -9.9889,-4.70066 -18.80283,-11.16447 -26.4414,-19.39063 -7.34479,-8.51994 -13.22008,-18.21565 -17.62696,-29.08593 -4.40686,-11.16408 -6.60937,-23.20795 -6.60937,-36.13477 0,-12.92682 2.20251,-24.97265 6.60937,-36.13672 4.40688,-11.45787 10.42979,-21.44685 18.06836,-29.9668 7.63858,-8.51994 16.4525,-15.13136 26.44141,-19.83203 9.98891,-4.99444 20.71206,-7.49023 32.16992,-7.49023 z M 131.2207,343.99414 120.23828,407.17969 h 7.44531 l 5.51172,-31.75781 c 3.29092,-4.88154 7.21319,-7.2679 11.76563,-7.1582 4.0588,0.0823 6.32089,2.0434 6.78711,5.88281 0.13714,1.15182 0.12351,2.40035 -0.041,3.74414 l -4.89453,29.28906 h 7.44531 l 4.85352,-29.16601 c 0.52106,-5.07351 -0.23232,-9.00938 -2.26172,-11.80664 -2.00198,-2.82469 -5.08736,-4.2635 -9.25586,-4.31836 -5.0735,-0.1097 -9.55691,1.96016 -13.45117,6.21093 l 4.52539,-24.10547 z m 254.14258,0 -4.2793,23.24219 c -2.66016,-3.51032 -6.47174,-5.31999 -11.43554,-5.42969 -3.42805,-0.0823 -6.5678,0.78179 -9.41992,2.5918 -2.85214,1.81001 -5.2521,4.53811 -7.19922,8.18555 -1.94714,3.64743 -3.1937,7.73278 -3.74219,12.25781 -0.21939,2.2488 -0.28931,4.18278 -0.20703,5.80078 0.19196,5.23807 1.50844,9.42048 3.94922,12.54688 2.44076,3.09893 5.71838,4.70276 9.83203,4.8125 5.15578,0.10966 9.48968,-1.75435 13,-5.59375 l -0.78321,4.77148 h 6.78907 l 10.9414,-63.18555 z m -307.537108,3.29102 -1.152344,6.5 h 18.634766 l -9.25586,53.39453 h 7.69336 l 9.255856,-53.39453 h 18.63477 l 1.15234,-6.5 z m 543.208988,4.60742 -1.89258,10.77735 h -7.85742 l -1.0293,5.88281 h 7.85742 l -4.52539,27.56054 c -0.32907,3.59263 0.24765,6.45859 1.72852,8.59766 1.48093,2.11187 3.70219,3.19533 6.66406,3.25 1.8374,0 3.64709,-0.24663 5.42969,-0.74023 l 0.57617,-6.21094 c -1.50834,0.27427 -2.71414,0.41016 -3.61914,0.41016 -2.13914,0 -3.30612,-1.06797 -3.49805,-3.20704 -0.0549,-0.60333 -0.0412,-1.26152 0.041,-1.97461 l 4.64843,-27.68554 h 8.0625 l 1.0293,-5.88281 h -8.10351 l 1.89257,-10.77735 z m 286.80273,0 -1.89258,10.77735 h -7.85742 l -1.02734,5.88281 h 7.85742 l -4.52539,27.56054 c -0.32907,3.59263 0.24758,6.45859 1.72851,8.59766 1.48094,2.11187 3.70227,3.19533 6.66407,3.25 1.8374,0 3.64708,-0.24663 5.42968,-0.74023 l 0.57618,-6.21094 c -1.50834,0.27427 -2.7161,0.41016 -3.6211,0.41016 -2.13906,0 -3.30409,-1.06797 -3.49609,-3.20704 -0.0549,-0.60333 -0.0412,-1.26152 0.041,-1.97461 l 4.64844,-27.68554 h 8.0625 l 1.0293,-5.88281 h -8.10547 l 1.89258,-10.77735 z M 255.125,361.76563 c -4.2782,-0.1097 -7.99464,1.90579 -11.14844,6.04687 l 1.11133,-5.18359 -7.19922,0.041 -7.73437,44.50976 h 7.44726 l 5.47071,-31.63476 c 2.74243,-4.30563 6.49964,-6.45704 11.27148,-6.45704 l 3.49609,0.36915 0.82227,-7.07422 c -1.45349,-0.41137 -2.6321,-0.61719 -3.53711,-0.61719 z m 348.34375,0 c -4.2782,-0.1097 -7.99464,1.90579 -11.14844,6.04687 l 1.11133,-5.18359 -7.19922,0.041 -7.73437,44.50976 h 7.44726 l 5.47071,-31.63476 c 2.74246,-4.30563 6.49968,-6.45704 11.27148,-6.45704 l 3.49609,0.36915 0.82227,-7.07422 c -1.45353,-0.41137 -2.63211,-0.61719 -3.53711,-0.61719 z m 124.39648,0 c -4.2782,-0.1097 -7.99463,1.90579 -11.14843,6.04687 l 1.11132,-5.18359 -7.19921,0.041 -7.73243,44.50976 h 7.44532 l 5.4707,-31.63476 c 2.7424,-4.30563 6.49962,-6.45704 11.27148,-6.45704 l 3.4961,0.36915 0.82422,-7.07422 c -1.45347,-0.41137 -2.63407,-0.61719 -3.53907,-0.61719 z m 263.60352,0 c -4.2782,-0.1097 -7.99464,1.90579 -11.14844,6.04687 l 1.11133,-5.18359 -7.19922,0.041 -7.73437,44.50976 h 7.44726 l 5.47071,-31.63476 c 2.74246,-4.30563 6.49968,-6.45704 11.27148,-6.45704 l 3.49609,0.36915 0.82227,-7.07422 c -1.45353,-0.41137 -2.63211,-0.61719 -3.53711,-0.61719 z m -710.67383,0.041 c -2.98925,-0.0548 -5.88435,0.47912 -8.68164,1.60352 -2.79728,1.09697 -5.08655,2.66005 -6.86914,4.68945 -1.78258,2.00198 -2.79615,4.3068 -3.04297,6.91211 l 7.48633,-0.043 c 0.43879,-2.13909 1.63099,-3.85167 3.57812,-5.14062 1.97456,-1.31639 4.23665,-1.94745 6.78711,-1.89258 2.60532,0.0548 4.55285,0.86457 5.8418,2.42773 1.31637,1.53578 1.83869,3.63281 1.56445,6.29297 l -0.49414,3.53711 -7.77539,-0.041 c -6.28018,0 -11.35387,1.33003 -15.2207,3.99023 -3.83941,2.63274 -5.89568,6.30839 -6.16992,11.02539 -0.2194,3.6474 0.89126,6.69204 3.33203,9.13281 2.46819,2.41355 5.6623,3.64651 9.58398,3.70118 4.57987,0.10966 8.91378,-1.72719 13,-5.51172 l -0.12304,2.34375 c 0,0.76793 0.0951,1.55043 0.28711,2.3457 h 7.57031 l 0.082,-0.69922 c -0.38396,-1.48093 -0.54901,-2.97604 -0.49414,-4.48437 l 0.20508,-3.16797 3.62109,-22.04883 c 0.41137,-4.47017 -0.67211,-8.04874 -3.25,-10.73633 -2.57789,-2.71501 -6.18364,-4.12663 -10.81836,-4.23633 z m 276.92969,0 c -2.98925,-0.0548 -5.8824,0.47912 -8.67969,1.60352 -2.79728,1.09697 -5.08656,2.66005 -6.86914,4.68945 -1.78258,2.00198 -2.7981,4.3068 -3.04492,6.91211 l 7.48828,-0.043 c 0.43879,-2.13909 1.631,-3.85167 3.57813,-5.14062 1.97455,-1.31639 4.23666,-1.94745 6.78711,-1.89258 2.60532,0.0548 4.55286,0.86457 5.84179,2.42773 1.3164,1.53578 1.83677,3.63281 1.5625,6.29297 l -0.49219,3.53711 -7.77539,-0.041 c -6.28017,0 -11.35387,1.33003 -15.2207,3.99023 -3.83941,2.63274 -5.89567,6.30839 -6.16992,11.02539 -0.21939,3.6474 0.89126,6.69204 3.33203,9.13281 2.46819,2.41355 5.6623,3.64651 9.58398,3.70118 4.57987,0.10966 8.91378,-1.72719 13,-5.51172 l -0.125,2.34375 c 0,0.76793 0.0971,1.55043 0.28907,2.3457 h 7.56836 l 0.082,-0.69922 c -0.38374,-1.48093 -0.54686,-2.97604 -0.49219,-4.48437 l 0.20508,-3.16797 3.61914,-22.04883 c 0.41133,-4.47017 -0.67018,-8.04874 -3.24805,-10.73633 -2.57786,-2.71501 -6.18558,-4.12663 -10.82031,-4.23633 z m -367.71875,0.041 c -3.59259,-0.0823 -6.93816,0.80897 -10.03711,2.67383 -3.09895,1.83742 -5.73191,4.57912 -7.89844,8.22656 -2.1391,3.64744 -3.44199,7.67842 -3.9082,12.09375 l -0.20508,1.76953 c -0.49364,6.19787 0.82285,11.28519 3.94922,15.26172 3.12638,3.97653 7.45833,6.01917 12.99805,6.12891 3.62001,0.0548 6.89763,-0.67136 9.83203,-2.17969 2.96183,-1.53573 5.37538,-3.64834 7.24023,-6.33594 l -4.27929,-3.61914 c -3.72971,4.0588 -7.78789,6.03356 -12.17579,5.92383 -3.62001,-0.10967 -6.34812,-1.57761 -8.18554,-4.40234 -1.81001,-2.82467 -2.46825,-6.25181 -1.97461,-10.28321 h 29.08398 l 0.45117,-3.41406 c 0.19197,-1.7826 0.24829,-3.56507 0.16602,-5.34766 -0.24682,-5.01865 -1.67398,-8.99528 -4.2793,-11.92968 -2.60531,-2.93441 -6.19747,-4.45671 -10.77734,-4.56641 z m 138.91797,0 c -5.10093,-0.10969 -9.65423,2.02812 -13.65821,6.41602 l 1.07032,-5.63477 -7.03516,0.041 -7.73242,44.50976 h 7.44531 l 5.51172,-31.75781 c 3.37319,-4.85411 7.29546,-7.24048 11.76563,-7.1582 4.0588,0.0823 6.3209,2.0434 6.7871,5.88281 0.13716,1.15182 0.12353,2.40035 -0.041,3.74414 l -4.89453,29.28906 h 7.44531 l 4.85352,-29.16601 c 0.52106,-5.07351 -0.21873,-9.00938 -2.22071,-11.80664 -2.00197,-2.79729 -5.10095,-4.24968 -9.29687,-4.35938 z m 89.51367,0 c -3.94911,-0.10969 -7.57041,0.84951 -10.86133,2.87891 -3.2635,2.00198 -5.93724,4.84076 -8.02148,8.51562 -2.08426,3.67486 -3.33082,7.81655 -3.74219,12.42383 -0.35651,4.08627 0.0823,7.82987 1.31641,11.23047 1.2341,3.4006 3.17968,6.08796 5.83984,8.0625 2.68759,1.9748 5.88365,2.9883 9.58594,3.04297 3.89425,0.10966 7.47283,-0.80873 10.73633,-2.75586 3.2635,-1.94714 5.92364,-4.66167 7.98046,-8.14453 2.05682,-3.51034 3.34613,-7.43256 3.86719,-11.76563 l 0.082,-0.9043 c 0.41137,-4.11363 -0.0275,-7.89804 -1.3164,-11.35351 -1.26152,-3.48289 -3.22266,-6.21295 -5.88282,-8.1875 -2.66016,-1.97454 -5.85427,-2.9881 -9.58398,-3.04297 z m 49.60938,0 c -5.2929,-0.10969 -9.80349,1.81066 -13.53321,5.75977 l 0.94531,-4.97852 -6.99218,0.041 -7.73438,44.50976 h 7.44531 l 5.63672,-32.53906 c 2.74244,-4.33305 6.4317,-6.44369 11.06641,-6.33399 2.68759,0.0548 4.66035,0.90337 5.92187,2.54883 1.28895,1.64546 1.75693,3.99105 1.40039,7.03516 l -4.9375,29.28906 h 7.48633 l 5.06055,-29.57617 c 0.63076,-2.82471 2.04238,-5.10235 4.23633,-6.83008 2.22137,-1.75518 4.69123,-2.60565 7.40625,-2.55078 4.36046,0.0823 6.8012,1.98904 7.32226,5.71875 0.16455,1.17925 0.16455,2.48214 0,3.9082 l -4.85546,29.33008 h 7.40429 l 4.89649,-29.24805 c 0.54848,-4.8541 -0.23403,-8.72004 -2.34571,-11.5996 -2.11168,-2.87958 -5.38929,-4.37468 -9.83203,-4.48438 -5.67684,-0.10969 -10.59908,2.27667 -14.76758,7.1582 -0.74046,-2.2488 -2.09771,-3.99051 -4.07226,-5.22461 -1.94713,-1.23408 -4.3335,-1.87872 -7.1582,-1.93359 z m 215.4746,0 c -5.1284,-0.10969 -9.53021,1.81066 -13.20507,5.75977 l 0.82226,-4.97852 -6.74609,0.041 -10.69531,61.62304 h 7.44531 l 3.99023,-21.47461 c 2.74247,3.3732 6.69186,5.11488 11.84766,5.22461 3.4006,0.0823 6.49961,-0.76818 9.29687,-2.55078 2.79727,-1.81 5.14087,-4.52453 7.03321,-8.14453 1.89226,-3.62 3.11364,-7.69173 3.66211,-12.2168 l 0.12304,-0.86328 c 0.16447,-1.64546 0.23241,-3.34641 0.20508,-5.10156 -0.13713,-5.34775 -1.39727,-9.54378 -3.7832,-12.58789 -2.38587,-3.0441 -5.7179,-4.62077 -9.9961,-4.73047 z m 71.41211,0 c -3.94913,-0.10969 -7.56844,0.84951 -10.85937,2.87891 -3.26347,2.00198 -5.93722,4.84076 -8.02149,8.51562 -2.08426,3.67486 -3.3328,7.81655 -3.74414,12.42383 -0.35653,4.08627 0.0823,7.82987 1.31641,11.23047 1.23407,3.4006 3.1816,6.08796 5.8418,8.0625 2.68753,1.9748 5.88165,2.9883 9.58398,3.04297 3.8942,0.10966 7.4728,-0.80873 10.73633,-2.75586 3.26347,-1.94714 5.9236,-4.66167 7.98047,-8.14453 2.0568,-3.51034 3.34612,-7.43256 3.86719,-11.76563 l 0.082,-0.9043 c 0.41133,-4.11363 -0.0275,-7.89804 -1.31641,-11.35351 -1.26153,-3.48289 -3.22268,-6.21295 -5.88281,-8.1875 -2.66014,-1.97454 -5.85425,-2.9881 -9.58399,-3.04297 z m 49.61133,0 c -5.29286,-0.10969 -9.80542,1.81066 -13.53515,5.75977 l 0.94726,-4.97852 -6.99414,0.041 -7.73242,44.50976 h 7.44531 l 5.63477,-32.53906 c 2.7424,-4.33305 6.43167,-6.44369 11.0664,-6.33399 2.6876,0.0548 4.6623,0.90337 5.92383,2.54883 1.28893,1.64546 1.75497,3.99105 1.39844,7.03516 l -4.9375,29.28906 H 811.25 l 5.05859,-29.57617 c 0.63074,-2.82471 2.04434,-5.10235 4.23829,-6.83008 2.2214,-1.75518 4.68929,-2.60565 7.40429,-2.55078 4.36047,0.0823 6.8012,1.98904 7.32227,5.71875 0.16453,1.17925 0.16453,2.48214 0,3.9082 l -4.85352,29.33008 h 7.4043 l 4.89453,-29.24805 c 0.54853,-4.8541 -0.23202,-8.72004 -2.34375,-11.5996 -2.11167,-2.87958 -5.3893,-4.37468 -9.83203,-4.48438 -5.6768,-0.10969 -10.59905,2.27667 -14.76758,7.1582 -0.74047,-2.2488 -2.09968,-3.99051 -4.07422,-5.22461 -1.94713,-1.23408 -4.33151,-1.87872 -7.15625,-1.93359 z m 71.6582,0 c -5.12833,-0.10969 -9.52825,1.81066 -13.20312,5.75977 l 0.82227,-4.97852 -6.7461,0.041 -10.69531,61.62304 h 7.44531 l 3.99024,-21.47461 c 2.74246,3.3732 6.69192,5.11488 11.84765,5.22461 3.40067,0.0823 6.49961,-0.76818 9.29688,-2.55078 2.79726,-1.81 5.14093,-4.52453 7.0332,-8.14453 1.89227,-3.62 3.11358,-7.69173 3.66211,-12.2168 l 0.12305,-0.86328 c 0.16446,-1.64546 0.2324,-3.34641 0.20508,-5.10156 -0.13716,-5.34775 -1.39923,-9.54378 -3.78516,-12.58789 -2.38593,-3.0441 -5.71787,-4.62077 -9.9961,-4.73047 z m 70.87891,0 c -3.5926,-0.0823 -6.93817,0.80897 -10.03711,2.67383 -3.099,1.83742 -5.73197,4.57912 -7.89844,8.22656 -2.13913,3.64744 -3.442,7.67842 -3.9082,12.09375 l -0.20508,1.76953 c -0.49366,6.19787 0.82282,11.28519 3.94922,15.26172 3.1264,3.97653 7.45838,6.01917 12.99805,6.12891 3.62007,0.0548 6.89763,-0.67136 9.83203,-2.17969 2.9618,-1.53573 5.37537,-3.64834 7.24023,-6.33594 l -4.27734,-3.61914 c -3.72973,4.0588 -7.78987,6.03356 -12.17773,5.92383 -3.62,-0.10967 -6.34808,-1.57761 -8.18555,-4.40234 -1.81,-2.82467 -2.46828,-6.25181 -1.97461,-10.28321 h 29.08398 l 0.45313,-3.41406 c 0.192,-1.7826 0.2464,-3.56507 0.16406,-5.34766 -0.2468,-5.01865 -1.67397,-8.99528 -4.27929,-11.92968 -2.60528,-2.93441 -6.19748,-4.45671 -10.77735,-4.56641 z m -757.44726,6.21094 c 2.87955,0.0823 5.08728,1.27448 6.62304,3.57812 1.56319,2.27622 2.1263,5.14219 1.6875,8.59766 l -0.16406,0.6582 -21.63867,-0.041 c 1.34379,-4.27817 3.15347,-7.49949 5.42969,-9.66602 2.30364,-2.16652 4.99097,-3.20923 8.0625,-3.12695 z m 228.51367,0 c 2.76986,0.10969 4.99117,1.12521 6.66406,3.04492 1.67289,1.91971 2.67481,4.53907 3.00391,7.85742 0.13712,1.72775 0.0963,3.852 -0.12305,6.375 -0.41137,3.20867 -1.33175,6.12899 -2.75781,8.76172 -1.42607,2.63273 -3.18138,4.60743 -5.26563,5.92383 -2.08425,1.28893 -4.35993,1.89279 -6.82812,1.81055 -2.76986,-0.0823 -4.99119,-1.08418 -6.66407,-3.00391 -1.64546,-1.91973 -2.60466,-4.49636 -2.8789,-7.73242 -0.19198,-1.8648 -0.19198,-3.66095 0,-5.38867 l 0.082,-0.94727 c 0.63076,-5.01865 2.28898,-9.07684 4.97656,-12.17578 2.68759,-3.09896 5.95161,-4.60767 9.79102,-4.52539 z m 336.49804,0 c 2.76987,0.10969 4.9912,1.12521 6.66407,3.04492 1.67293,1.91971 2.67288,4.53907 3.00195,7.85742 0.13713,1.72775 0.0964,3.852 -0.12305,6.375 -0.41133,3.20867 -1.32979,6.12899 -2.75586,8.76172 -1.42606,2.63273 -3.18135,4.60743 -5.26562,5.92383 -2.08427,1.28893 -4.35993,1.89279 -6.82813,1.81055 -2.76986,-0.0823 -4.99119,-1.08418 -6.66406,-3.00391 -1.64547,-1.91973 -2.60659,-4.49636 -2.88086,-7.73242 -0.19193,-1.8648 -0.19193,-3.66095 0,-5.38867 l 0.082,-0.94727 c 0.6308,-5.01865 2.29099,-9.07684 4.97852,-12.17578 2.6876,-3.09896 5.95161,-4.60767 9.79101,-4.52539 z m 192.06641,0 c 2.8796,0.0823 5.08731,1.27448 6.62305,3.57812 1.5632,2.27622 2.12434,5.14219 1.68554,8.59766 l -0.16406,0.6582 -21.63867,-0.041 c 1.3438,-4.27817 3.15349,-7.49949 5.42969,-9.66602 2.30366,-2.16652 4.99298,-3.20923 8.06445,-3.12695 z m -575.625,0.20508 c 4.33305,0.1097 7.32329,2.1951 8.96875,6.2539 l -3.53711,20.56836 c -3.34577,4.525 -7.17289,6.69193 -11.47851,6.5 -2.85214,-0.0549 -5.01714,-1.1655 -6.49805,-3.33203 -1.48091,-2.16653 -2.18188,-5.21115 -2.09961,-9.13281 0.0274,-3.62 0.6177,-7.08984 1.76953,-10.40821 1.17925,-3.34577 2.88019,-5.936 5.10156,-7.77343 2.2488,-1.86486 4.83903,-2.75806 7.77344,-2.67578 z m 309.88281,0 c 2.87954,0.1097 5.0737,1.2359 6.58203,3.375 1.5358,2.11167 2.30274,5.16792 2.30274,9.17187 l -0.20508,3.45703 c -0.82273,5.8414 -2.53724,10.25494 -5.14258,13.24414 -2.57786,2.96187 -5.71765,4.40258 -9.41992,4.32032 -4.33307,-0.10974 -7.33688,-2.13883 -9.00977,-6.0879 l 3.74415,-21.3496 c 3.1264,-4.19593 6.84283,-6.24056 11.14843,-6.13086 z m 192.6836,0 c 2.87953,0.1097 5.07369,1.2359 6.58203,3.375 1.5358,2.11167 2.30273,5.16792 2.30273,9.17187 l -0.20508,3.45703 c -0.82273,5.8414 -2.53724,10.25494 -5.14257,13.24414 -2.57787,2.96187 -5.71759,4.40258 -9.41993,4.32032 -4.333,-0.10974 -7.33683,-2.13883 -9.00976,-6.0879 l 3.74414,-21.3496 c 3.12633,-4.19593 6.84277,-6.24056 11.14844,-6.13086 z m -593.23047,17.27929 5.63476,0.041 -1.60351,9.17187 c -1.53576,2.11167 -3.37262,3.77185 -5.51172,4.97852 -2.11168,1.17907 -4.36018,1.74021 -6.74609,1.68555 -2.33108,-0.0549 -4.11357,-0.76748 -5.34766,-2.13868 -1.20667,-1.39866 -1.68823,-3.14041 -1.44141,-5.22461 0.3291,-2.715 1.74267,-4.81203 4.23828,-6.29296 2.49562,-1.48094 6.08779,-2.22071 10.77735,-2.22071 z m 276.93164,0 5.63476,0.041 -1.60351,9.17187 c -1.5358,2.11167 -3.37458,3.77185 -5.51367,4.97852 -2.11168,1.17907 -4.36018,1.74021 -6.7461,1.68555 -2.33106,-0.0549 -4.11356,-0.76748 -5.34765,-2.13868 -1.20668,-1.39866 -1.68628,-3.14041 -1.43946,-5.22461 0.3291,-2.715 1.74072,-4.81203 4.23633,-6.29296 2.49562,-1.48094 6.08972,-2.22071 10.7793,-2.22071 z M 91.259766,453.61328 H 972.11133 Z" />
  <g
     transform="matrix(0.26763361,0,0,0.26763361,265.99055,-189.97199)"
     id="g902"
     style="fill:#ffffff">
    <path
       transform="rotate(120)"
       id="path951"
       d="m 376.38672,-2544.8965 c -80.27283,-2.3862 -160.42621,27.5981 -220.09961,87.2715 -95.477458,95.4774 -114.950259,243.3848 -47.4375,360.3203 67.51276,116.9355 205.34103,174.0273 335.76562,139.0801 130.42459,-34.9472 221.24217,-153.3046 221.24219,-288.3301 a 16,16 0 0 0 -16,-16 16,16 0 0 0 -16,16 c -2e-5,120.6967 -80.93937,226.1813 -197.52344,257.4199 -116.58407,31.2387 -239.4231,-19.6435 -299.77148,-124.1699 -60.348376,-104.5264 -42.993928,-236.3479 42.35156,-321.6933 85.34548,-85.3455 217.16693,-102.7 321.69336,-42.3516 a 16,16 0 0 0 21.85742,-5.8574 16,16 0 0 0 -5.85742,-21.8555 c -43.85081,-25.3173 -92.057,-38.4023 -140.2207,-39.834 z"
       style="color:#000000;font-style:normal;font-variant:normal;font-weight:normal;font-stretch:normal;font-size:medium;line-height:normal;font-family:sans-serif;font-variant-ligatures:normal;font-variant-position:normal;font-variant-caps:normal;font-variant-numeric:normal;font-variant-alternates:normal;font-variant-east-asian:normal;font-feature-settings:normal;font-variation-settings:normal;text-indent:0;text-align:start;text-decoration:none;text-decoration-line:none;text-decoration-style:solid;text-decoration-color:#000000;letter-spacing:normal;word-spacing:normal;text-transform:none;writing-mode:lr-tb;direction:ltr;text-orientation:mixed;dominant-baseline:auto;baseline-shift:baseline;text-anchor:start;white-space:normal;shape-padding:0;shape-margin:0;inline-size:0;clip-rule:nonzero;display:inline;overflow:visible;visibility:visible;opacity:1;isolation:auto;mix-blend-mode:normal;color-interpolation:sRGB;color-interpolation-filters:linearRGB;solid-color:#000000;solid-opacity:1;vector-effect:none;fill:#ffffff;fill-opacity:1;fill-rule:nonzero;stroke:none;stroke-width:32;stroke-linecap:round;stroke-linejoin:round;stroke-miterlimit:4;stroke-dasharray:none;stroke-dashoffset:0;stroke-opacity:1;paint-order:markers stroke fill;color-rendering:auto;image-rendering:auto;shape-rendering:auto;text-rendering:auto;enable-background:accumulate;stop-color:#000000;stop-opacity:1" />
    <path
       d="m 1876.4922,1728.6211 c -37.738,0.045 -75.4761,0 -113.2141,0.018 -39.0183,0.01 -78.0379,-0.013 -117.0554,0.01 -2.4126,0.2814 -4.8326,1.8071 -5.5332,4.2343 -0.6747,2.1568 -0.2469,4.4328 -0.3672,6.6473 0.01,12.9857 -0.016,25.9734 0.012,38.9578 0.3131,2.2306 1.5471,4.6596 3.8099,5.3754 2.2515,0.903 4.7122,0.395 7.0645,0.5254 75.4186,0 150.8372,0 226.2558,0 2.3058,-0.2956 4.8053,-1.5556 5.5159,-3.9334 0.8443,-2.2176 0.3548,-4.6246 0.4841,-6.9319 -0.01,-12.9944 0.016,-25.9908 -0.012,-38.984 -0.321,-2.302 -1.6169,-4.7731 -4.0039,-5.4454 -0.9431,-0.3428 -1.9532,-0.508 -2.9565,-0.4729 z"
       style="fill:#ffffff;fill-opacity:1;stroke:none;stroke-width:18.0066;stroke-linecap:round;stroke-linejoin:round;stroke-miterlimit:4;stroke-dasharray:none;paint-order:markers stroke fill;stop-color:#000000"
       id="rect837" />
    <path
       d="m 1850.5156,1818.6211 c -37.738,0.045 -75.476,0 -113.214,0.018 -21.7006,0.01 -43.4025,-0.013 -65.1023,0.01 -2.4127,0.2814 -4.8327,1.8071 -5.5333,4.2343 -0.6746,2.1568 -0.2468,4.4328 -0.3672,6.6473 0.01,12.9857 -0.016,25.9734 0.012,38.9578 0.3132,2.2306 1.547,4.6596 3.81,5.3754 2.2515,0.903 4.7122,0.395 7.0644,0.5254 58.101,0 116.2019,0 174.3028,0 2.3425,-0.2935 4.8663,-1.6019 5.5511,-4.027 0.6861,-1.7944 0.4045,-3.7661 0.4423,-5.5623 0.01,-13.4196 0.018,-26.8415 -0.01,-40.26 -0.321,-2.302 -1.6168,-4.7731 -4.0039,-5.4454 -0.9431,-0.3428 -1.9532,-0.508 -2.9565,-0.4729 z"
       style="fill:#ffffff;fill-opacity:1;stroke:none;stroke-width:15.931;stroke-linecap:round;stroke-linejoin:round;stroke-miterlimit:4;stroke-dasharray:none;paint-order:markers stroke fill;stop-color:#000000"
       id="rect839" />
    <path
       id="path955"
       d="m 1761.8945,945.67383 a 18.240101,18.240101 0 0 0 -18.2402,18.24023 v 142.95704 a 18.240101,18.240101 0 0 0 18.2402,18.2402 18.240101,18.240101 0 0 0 18.2403,-18.2402 V 963.91406 a 18.240101,18.240101 0 0 0 -18.2403,-18.24023 z"
       style="color:#000000;font-style:normal;font-variant:normal;font-weight:normal;font-stretch:normal;font-size:medium;line-height:normal;font-family:sans-serif;font-variant-ligatures:normal;font-variant-position:normal;font-variant-caps:normal;font-variant-numeric:normal;font-variant-alternates:normal;font-variant-east-asian:normal;font-feature-settings:normal;font-variation-settings:normal;text-indent:0;text-align:start;text-decoration:none;text-decoration-line:none;text-decoration-style:solid;text-decoration-color:#000000;letter-spacing:normal;word-spacing:normal;text-transform:none;writing-mode:lr-tb;direction:ltr;text-orientation:mixed;dominant-baseline:auto;baseline-shift:baseline;text-anchor:start;white-space:normal;shape-padding:0;shape-margin:0;inline-size:0;clip-rule:nonzero;display:inline;overflow:visible;visibility:visible;opacity:1;isolation:auto;mix-blend-mode:normal;color-interpolation:sRGB;color-interpolation-filters:linearRGB;solid-color:#000000;solid-opacity:1;vector-effect:none;fill:#ffffff;fill-opacity:1;fill-rule:nonzero;stroke:none;stroke-width:36.4802;stroke-linecap:round;stroke-linejoin:round;stroke-miterlimit:4;stroke-dasharray:none;stroke-dashoffset:0;stroke-opacity:1;paint-order:markers stroke fill;color-rendering:auto;image-rendering:auto;shape-rendering:auto;text-rendering:auto;enable-background:accumulate;stop-color:#000000;stop-opacity:1" />
    <path
       id="path959"
       d="m 2096.4199,1404.2539 a 18.240101,18.240101 0 0 0 -18.2402,18.2402 18.240101,18.240101 0 0 0 18.2402,18.2403 h 142.9571 a 18.240101,18.240101 0 0 0 18.2402,-18.2403 18.240101,18.240101 0 0 0 -18.2402,-18.2402 z"
       style="color:#000000;font-style:normal;font-variant:normal;font-weight:normal;font-stretch:normal;font-size:medium;line-height:normal;font-family:sans-serif;font-variant-ligatures:normal;font-variant-position:normal;font-variant-caps:normal;font-variant-numeric:normal;font-variant-alternates:normal;font-variant-east-asian:normal;font-feature-settings:normal;font-variation-settings:normal;text-indent:0;text-align:start;text-decoration:none;text-decoration-line:none;text-decoration-style:solid;text-decoration-color:#000000;letter-spacing:normal;word-spacing:normal;text-transform:none;writing-mode:lr-tb;direction:ltr;text-orientation:mixed;dominant-baseline:auto;baseline-shift:baseline;text-anchor:start;white-space:normal;shape-padding:0;shape-margin:0;inline-size:0;clip-rule:nonzero;display:inline;overflow:visible;visibility:visible;opacity:1;isolation:auto;mix-blend-mode:normal;color-interpolation:sRGB;color-interpolation-filters:linearRGB;solid-color:#000000;solid-opacity:1;vector-effect:none;fill:#ffffff;fill-opacity:1;fill-rule:nonzero;stroke:none;stroke-width:36.4802;stroke-linecap:round;stroke-linejoin:round;stroke-miterlimit:4;stroke-dasharray:none;stroke-dashoffset:0;stroke-opacity:1;paint-order:markers stroke fill;color-rendering:auto;image-rendering:auto;shape-rendering:auto;text-rendering:auto;enable-background:accumulate;stop-color:#000000;stop-opacity:1" />
    <path
       id="path963"
       d="m 2114.1172,1075.1406 a 18.240101,18.240101 0 0 0 -12.8594,5.3418 l -101.0859,101.086 a 18.240101,18.240101 0 0 0 0,25.7968 18.240101,18.240101 0 0 0 25.7949,0 l 101.0879,-101.0879 a 18.240101,18.240101 0 0 0 0,-25.7949 18.240101,18.240101 0 0 0 -12.9375,-5.3418 z"
       style="color:#000000;font-style:normal;font-variant:normal;font-weight:normal;font-stretch:normal;font-size:medium;line-height:normal;font-family:sans-serif;font-variant-ligatures:normal;font-variant-position:normal;font-variant-caps:normal;font-variant-numeric:normal;font-variant-alternates:normal;font-variant-east-asian:normal;font-feature-settings:normal;font-variation-settings:normal;text-indent:0;text-align:start;text-decoration:none;text-decoration-line:none;text-decoration-style:solid;text-decoration-color:#000000;letter-spacing:normal;word-spacing:normal;text-transform:none;writing-mode:lr-tb;direction:ltr;text-orientation:mixed;dominant-baseline:auto;baseline-shift:baseline;text-anchor:start;white-space:normal;shape-padding:0;shape-margin:0;inline-size:0;clip-rule:nonzero;display:inline;overflow:visible;visibility:visible;opacity:1;isolation:auto;mix-blend-mode:normal;color-interpolation:sRGB;color-interpolation-filters:linearRGB;solid-color:#000000;solid-opacity:1;vector-effect:none;fill:#ffffff;fill-opacity:1;fill-rule:nonzero;stroke:none;stroke-width:36.4802;stroke-linecap:round;stroke-linejoin:round;stroke-miterlimit:4;stroke-dasharray:none;stroke-dashoffset:0;stroke-opacity:1;paint-order:markers stroke fill;color-rendering:auto;image-rendering:auto;shape-rendering:auto;text-rendering:auto;enable-background:accumulate;stop-color:#000000;stop-opacity:1" />
    <path
       id="path967"
       d="m 2034.459,1632.2832 a 18.240101,18.240101 0 0 0 -12.8574,5.3418 18.240101,18.240101 0 0 0 0,25.7949 l 101.0859,101.0879 a 18.240101,18.240101 0 0 0 25.7949,0 18.240101,18.240101 0 0 0 0,-25.7969 L 2047.3965,1637.625 a 18.240101,18.240101 0 0 0 -12.9375,-5.3418 z"
       style="color:#000000;font-style:normal;font-variant:normal;font-weight:normal;font-stretch:normal;font-size:medium;line-height:normal;font-family:sans-serif;font-variant-ligatures:normal;font-variant-position:normal;font-variant-caps:normal;font-variant-numeric:normal;font-variant-alternates:normal;font-variant-east-asian:normal;font-feature-settings:normal;font-variation-settings:normal;text-indent:0;text-align:start;text-decoration:none;text-decoration-line:none;text-decoration-style:solid;text-decoration-color:#000000;letter-spacing:normal;word-spacing:normal;text-transform:none;writing-mode:lr-tb;direction:ltr;text-orientation:mixed;dominant-baseline:auto;baseline-shift:baseline;text-anchor:start;white-space:normal;shape-padding:0;shape-margin:0;inline-size:0;clip-rule:nonzero;display:inline;overflow:visible;visibility:visible;opacity:1;isolation:auto;mix-blend-mode:normal;color-interpolation:sRGB;color-interpolation-filters:linearRGB;solid-color:#000000;solid-opacity:1;vector-effect:none;fill:#ffffff;fill-opacity:1;fill-rule:nonzero;stroke:none;stroke-width:36.4802;stroke-linecap:round;stroke-linejoin:round;stroke-miterlimit:4;stroke-dasharray:none;stroke-dashoffset:0;stroke-opacity:1;paint-order:markers stroke fill;color-rendering:auto;image-rendering:auto;shape-rendering:auto;text-rendering:auto;enable-background:accumulate;stop-color:#000000;stop-opacity:1" />
    <path
       id="path971"
       d="m 1285.9277,1404.2539 a 18.240101,18.240101 0 0 0 -18.2402,18.2402 18.240101,18.240101 0 0 0 18.2402,18.2403 h 142.9571 a 18.240101,18.240101 0 0 0 18.2402,-18.2403 18.240101,18.240101 0 0 0 -18.2402,-18.2402 z"
       style="color:#000000;font-style:normal;font-variant:normal;font-weight:normal;font-stretch:normal;font-size:medium;line-height:normal;font-family:sans-serif;font-variant-ligatures:normal;font-variant-position:normal;font-variant-caps:normal;font-variant-numeric:normal;font-variant-alternates:normal;font-variant-east-asian:normal;font-feature-settings:normal;font-variation-settings:normal;text-indent:0;text-align:start;text-decoration:none;text-decoration-line:none;text-decoration-style:solid;text-decoration-color:#000000;letter-spacing:normal;word-spacing:normal;text-transform:none;writing-mode:lr-tb;direction:ltr;text-orientation:mixed;dominant-baseline:auto;baseline-shift:baseline;text-anchor:start;white-space:normal;shape-padding:0;shape-margin:0;inline-size:0;clip-rule:nonzero;display:inline;overflow:visible;visibility:visible;opacity:1;isolation:auto;mix-blend-mode:normal;color-interpolation:sRGB;color-interpolation-filters:linearRGB;solid-color:#000000;solid-opacity:1;vector-effect:none;fill:#ffffff;fill-opacity:1;fill-rule:nonzero;stroke:none;stroke-width:36.4802;stroke-linecap:round;stroke-linejoin:round;stroke-miterlimit:4;stroke-dasharray:none;stroke-dashoffset:0;stroke-opacity:1;paint-order:markers stroke fill;color-rendering:auto;image-rendering:auto;shape-rendering:auto;text-rendering:auto;enable-background:accumulate;stop-color:#000000;stop-opacity:1" />
    <path
       id="path975"
       d="m 1411.1094,1075.1406 a 18.240101,18.240101 0 0 0 -12.8594,5.3418 18.240101,18.240101 0 0 0 0,25.7949 l 101.0879,101.0879 a 18.240101,18.240101 0 0 0 25.7949,0 18.240101,18.240101 0 0 0 0,-25.7968 l -101.0859,-101.086 a 18.240101,18.240101 0 0 0 -12.9375,-5.3418 z"
       style="color:#000000;font-style:normal;font-variant:normal;font-weight:normal;font-stretch:normal;font-size:medium;line-height:normal;font-family:sans-serif;font-variant-ligatures:normal;font-variant-position:normal;font-variant-caps:normal;font-variant-numeric:normal;font-variant-alternates:normal;font-variant-east-asian:normal;font-feature-settings:normal;font-variation-settings:normal;text-indent:0;text-align:start;text-decoration:none;text-decoration-line:none;text-decoration-style:solid;text-decoration-color:#000000;letter-spacing:normal;word-spacing:normal;text-transform:none;writing-mode:lr-tb;direction:ltr;text-orientation:mixed;dominant-baseline:auto;baseline-shift:baseline;text-anchor:start;white-space:normal;shape-padding:0;shape-margin:0;inline-size:0;clip-rule:nonzero;display:inline;overflow:visible;visibility:visible;opacity:1;isolation:auto;mix-blend-mode:normal;color-interpolation:sRGB;color-interpolation-filters:linearRGB;solid-color:#000000;solid-opacity:1;vector-effect:none;fill:#ffffff;fill-opacity:1;fill-rule:nonzero;stroke:none;stroke-width:36.4802;stroke-linecap:round;stroke-linejoin:round;stroke-miterlimit:4;stroke-dasharray:none;stroke-dashoffset:0;stroke-opacity:1;paint-order:markers stroke fill;color-rendering:auto;image-rendering:auto;shape-rendering:auto;text-rendering:auto;enable-background:accumulate;stop-color:#000000;stop-opacity:1" />
    <path
       id="path979"
       d="m 1490.7656,1632.2832 a 18.240101,18.240101 0 0 0 -12.8574,5.3418 l -101.0859,101.0859 a 18.240101,18.240101 0 0 0 0,25.7969 18.240101,18.240101 0 0 0 25.7949,0 l 101.0859,-101.0879 a 18.240101,18.240101 0 0 0 0,-25.7949 18.240101,18.240101 0 0 0 -12.9375,-5.3418 z"
       style="color:#000000;font-style:normal;font-variant:normal;font-weight:normal;font-stretch:normal;font-size:medium;line-height:normal;font-family:sans-serif;font-variant-ligatures:normal;font-variant-position:normal;font-variant-caps:normal;font-variant-numeric:normal;font-variant-alternates:normal;font-variant-east-asian:normal;font-feature-settings:normal;font-variation-settings:normal;text-indent:0;text-align:start;text-decoration:none;text-decoration-line:none;text-decoration-style:solid;text-decoration-color:#000000;letter-spacing:normal;word-spacing:normal;text-transform:none;writing-mode:lr-tb;direction:ltr;text-orientation:mixed;dominant-baseline:auto;baseline-shift:baseline;text-anchor:start;white-space:normal;shape-padding:0;shape-margin:0;inline-size:0;clip-rule:nonzero;display:inline;overflow:visible;visibility:visible;opacity:1;isolation:auto;mix-blend-mode:normal;color-interpolation:sRGB;color-interpolation-filters:linearRGB;solid-color:#000000;solid-opacity:1;vector-effect:none;fill:#ffffff;fill-opacity:1;fill-rule:nonzero;stroke:none;stroke-width:36.4802;stroke-linecap:round;stroke-linejoin:round;stroke-miterlimit:4;stroke-dasharray:none;stroke-dashoffset:0;stroke-opacity:1;paint-order:markers stroke fill;color-rendering:auto;image-rendering:auto;shape-rendering:auto;text-rendering:auto;enable-background:accumulate;stop-color:#000000;stop-opacity:1" />
    <path
       transform="translate(1262.6523,911.01353)"
       d="m 389.625,446.82422 a 7.1444301,8.9598191 0 0 0 -7.14453,8.95898 v 279.26758 a 7.1444301,8.9598191 0 0 0 7.14453,8.95899 h 21.95508 a 7.1444301,8.9598191 0 0 0 7.14258,-8.95899 V 539.32812 l 67.89453,148.26368 a 7.1444301,8.9598191 0 0 0 6.19336,4.49804 h 12.86133 a 7.1444301,8.9598191 0 0 0 6.19335,-4.49804 l 67.89454,-148.26563 v 195.72461 a 7.1444301,8.9598191 0 0 0 7.14453,8.95899 h 21.95312 a 7.1444301,8.9598191 0 0 0 7.14453,-8.95899 V 455.7832 a 7.1444301,8.9598191 0 0 0 -7.14453,-8.95898 h -22.26758 a 7.1444301,8.9598191 0 0 0 -6.19531,4.49805 L 499.10742,628.90039 418.41211,451.3457 a 7.1444301,8.9598191 0 0 0 -6.20508,-4.52148 z"
       style="color:#000000;font-style:normal;font-variant:normal;font-weight:normal;font-stretch:normal;font-size:medium;line-height:1.25;font-family:Raleway;-inkscape-font-specification:Raleway;font-variant-ligatures:normal;font-variant-position:normal;font-variant-caps:normal;font-variant-numeric:normal;font-variant-alternates:normal;font-variant-east-asian:normal;font-feature-settings:normal;font-variation-settings:normal;text-indent:0;text-align:start;text-decoration:none;text-decoration-line:none;text-decoration-style:solid;text-decoration-color:#000000;letter-spacing:normal;word-spacing:normal;text-transform:none;writing-mode:lr-tb;direction:ltr;text-orientation:mixed;dominant-baseline:auto;baseline-shift:baseline;text-anchor:start;white-space:normal;shape-padding:0;shape-margin:0;inline-size:0;clip-rule:nonzero;display:inline;overflow:visible;visibility:visible;isolation:auto;mix-blend-mode:normal;color-interpolation:sRGB;color-interpolation-filters:linearRGB;solid-color:#000000;solid-opacity:1;vector-effect:none;fill:#ffffff;fill-opacity:1;fill-rule:nonzero;stroke:none;stroke-width:16;stroke-linecap:round;stroke-linejoin:round;stroke-miterlimit:4;stroke-dasharray:none;stroke-dashoffset:0;stroke-opacity:1;color-rendering:auto;image-rendering:auto;shape-rendering:auto;text-rendering:auto;enable-background:accumulate;stop-color:#000000"
       id="path919" />
  </g>
</svg>
