<?xml version="1.0" encoding="UTF-8" standalone="no"?>
<svg
   xmlns:dc="http://purl.org/dc/elements/1.1/"
   xmlns:cc="http://creativecommons.org/ns#"
   xmlns:rdf="http://www.w3.org/1999/02/22-rdf-syntax-ns#"
   xmlns:svg="http://www.w3.org/2000/svg"
   xmlns="http://www.w3.org/2000/svg"
   width="100"
   height="75"
   viewBox="0 0 99.99999 74.999998"
   version="1.1"
   id="svg8">
  <defs
     id="defs2" />
  <metadata
     id="metadata5">
    <rdf:RDF>
      <cc:Work
         rdf:about="">
        <dc:format>image/svg+xml</dc:format>
        <dc:type
           rdf:resource="http://purl.org/dc/dcmitype/StillImage" />
        <dc:title></dc:title>
      </cc:Work>
    </rdf:RDF>
  </metadata>
  <g
     id="layer1"
     transform="translate(-1257.714,-201.4731)">
    <path
       transform="translate(1257.714,201.4731)"
       d="m 48.699219,4.9042969 c -7.166,4.5e-4 -13.620535,4.1589519 -15.802735,10.4511721 -6.6734,1.87558 -11.772837,7.261312 -11.773437,14.039062 0,8.48141 7.718522,14.927775 16.607422,14.927735 0.954826,-10e-6 1.901747,-0.07496 2.832031,-0.220704 v -7.148437 c -0.906596,0.235554 -1.859021,0.369126 -2.832031,0.369141 -5.5907,3e-5 -9.607422,-3.785615 -9.607422,-7.927735 3e-4,-3.68895 3.166884,-7.168322 8.083984,-7.826172 a 3.50035,3.50035 0 0 0 2.982422,-2.863281 c 0.6455,-3.66709 4.522766,-6.800471 9.509766,-6.800781 4.8852,10e-5 8.730656,3.024332 9.472656,6.607422 a 3.50035,3.50035 0 0 0 2.847656,2.742187 c 5.4435,0.91234 8.931541,4.848511 8.931641,9.056641 0,4.86553 -4.690928,9.238291 -11.111328,9.238281 C 56.728516,39.548427 54.715149,39.031527 53,38.144531 v 7.492188 c 1.858274,0.588563 3.821997,0.911726 5.839844,0.912109 9.7186,2e-5 18.111328,-7.033471 18.111328,-16.238281 C 76.951072,23.070057 71.56585,17.223889 64.40625,15.099609 62.12985,8.9300294 55.755319,4.9044469 48.699219,4.9042969 Z"
       style="color:#000000;font-style:normal;font-variant:normal;font-weight:normal;font-stretch:normal;font-size:medium;line-height:normal;font-family:sans-serif;font-variant-ligatures:normal;font-variant-position:normal;font-variant-caps:normal;font-variant-numeric:normal;font-variant-alternates:normal;font-variant-east-asian:normal;font-feature-settings:normal;font-variation-settings:normal;text-indent:0;text-align:start;text-decoration:none;text-decoration-line:none;text-decoration-style:solid;text-decoration-color:#000000;letter-spacing:normal;word-spacing:normal;text-transform:none;writing-mode:lr-tb;direction:ltr;text-orientation:mixed;dominant-baseline:auto;baseline-shift:baseline;text-anchor:start;white-space:normal;shape-padding:0;shape-margin:0;inline-size:0;clip-rule:nonzero;display:inline;overflow:visible;visibility:visible;isolation:auto;mix-blend-mode:normal;color-interpolation:sRGB;color-interpolation-filters:linearRGB;solid-color:#000000;solid-opacity:1;vector-effect:none;fill:#ffffff;fill-opacity:1;fill-rule:nonzero;stroke:none;stroke-width:7;stroke-linecap:round;stroke-linejoin:round;stroke-miterlimit:4;stroke-dasharray:none;stroke-dashoffset:0;stroke-opacity:1;paint-order:markers stroke fill;color-rendering:auto;image-rendering:auto;shape-rendering:auto;text-rendering:auto;enable-background:accumulate;stop-color:#000000"
       id="path1142" />
    <path
       id="path1112"
       d="m 1302.6485,225.13857 2.3679,2.76402 v 39.74656"
       style="fill:none;stroke:#ffffff;stroke-width:3.80667;stroke-linecap:round;stroke-linejoin:round;stroke-miterlimit:4;stroke-dasharray:none;stroke-opacity:1" />
    <path
       id="path1114"
       d="m 1306.4327,234.18557 4.4798,-2.10065"
       style="fill:none;stroke:#ffffff;stroke-width:3.80667;stroke-linecap:round;stroke-linejoin:round;stroke-miterlimit:4;stroke-dasharray:none;stroke-opacity:1" />
    <path
       id="path1116"
       d="m 1273.2487,269.56949 h 68.9305"
       style="font-variation-settings:normal;vector-effect:none;fill:none;fill-opacity:1;stroke:#ffffff;stroke-width:4;stroke-linecap:round;stroke-linejoin:round;stroke-miterlimit:4;stroke-dasharray:none;stroke-dashoffset:0;stroke-opacity:1;paint-order:markers stroke fill;stop-color:#000000" />
  </g>
</svg>
